<?xml version="1.0" standalone="no"?><svg xmlns="http://www.w3.org/2000/svg" viewBox="0 0 1440 320"><path fill="#2f49a1" fill-opacity="1" d="M0,288L30,282.7C60,277,120,267,180,218.7C240,171,300,85,360,42.7C420,0,480,0,540,16C600,32,660,64,720,112C780,160,840,224,900,224C960,224,1020,160,1080,122.7C1140,85,1200,75,1260,69.3C1320,64,1380,64,1410,64L1440,64L1440,320L1410,320C1380,320,1320,320,1260,320C1200,320,1140,320,1080,320C1020,320,960,320,900,320C840,320,780,320,720,320C660,320,600,320,540,320C480,320,420,320,360,320C300,320,240,320,180,320C120,320,60,320,30,320L0,320Z"></path></svg>